<?xml version="1.0" encoding="UTF-8"?>
<svg id="Layer_1" data-name="Layer 1" xmlns="http://www.w3.org/2000/svg" viewBox="0 0 382.2171902063 375.5956721272">
  <path d="M364.6172069909,235.0307962847l17.5999832153-212.20079422c0-2.2000026703-1.3999938965-4.2000007629-3.6000061035-4.4000053406L167.4171947839,.0299999666c-2.6000022888-.1999998093-5.2000045776,.5999994278-7.1999931335,2.4000024796L1.4167999627,135.4300043535c-2.6000022888,2.20079422-1.3999986649,6.4007949829,1.7999982834,7.0007896423l81.3999986649,14.4000053406c9.8000049591-53.000793457,57.6000118256-92.8007984161,114.2004108429-89.8007965088,56.5999984741,3.0000019073,102.8000068665,51.1999893188,103.7999916077,107.6008033752,1.1999893188,61.0000038147-47.3999977112,110.9999847412-107.9999923706,112.0000076294v85c0,3.4000015259,3.9999961853,5.2000045776,6.5999984741,2.9999923706l159.5999908447-133.1999969482c2.0000076294-1.8000030518,3.4000015259-4.2000007629,3.6000061035-6.8000030518l.2000045776,.3999900818Z" style="fill: #5548d9;"/>
  <path d="M192.8172039392,257.0307848406c44.1819953918,0,80-35.8179855347,80-79.9999809265,0-44.1835975647-35.8180046082-80.0008010864-80-80.0008010864-44.1839981079,0-80.0004005432,35.8172035217-80.0004005432,80.0008010864,0,44.1819953918,35.8164024353,79.9999809265,80.0004005432,79.9999809265Z" style="fill: #aaa4ec;"/>
</svg>