<svg width="90" height="24" viewBox="0 0 90 24" fill="none" xmlns="http://www.w3.org/2000/svg">
<path d="M21.35 14.9001L22.23 4.29006C22.23 4.18006 22.16 4.08006 22.05 4.07006L11.49 3.15006C11.36 3.14006 11.23 3.18006 11.13 3.27006L3.18998 9.92006C3.05998 10.0301 3.11998 10.2401 3.27998 10.2701L7.34998 10.9901C7.83998 8.34006 10.23 6.35006 13.06 6.50006C15.89 6.65006 18.2 9.06006 18.25 11.8801C18.31 14.9301 15.88 17.4301 12.85 17.4801V21.7301C12.85 21.9001 13.05 21.9901 13.18 21.8801L21.16 15.2201C21.26 15.1301 21.33 15.0101 21.34 14.8801L21.35 14.9001Z" fill="white"/>
<path d="M12.76 16C14.9691 16 16.76 14.2091 16.76 12C16.76 9.79086 14.9691 8 12.76 8C10.5508 8 8.75998 9.79086 8.75998 12C8.75998 14.2091 10.5508 16 12.76 16Z" fill="white" fill-opacity="0.75"/>
<path d="M38.402 7.92C38.162 7.608 37.82 7.35 37.376 7.146C36.944 6.93 36.506 6.822 36.062 6.822C35.798 6.822 35.534 6.858 35.27 6.93C35.006 6.99 34.766 7.092 34.55 7.236C34.334 7.368 34.154 7.548 34.01 7.776C33.878 7.992 33.812 8.256 33.812 8.568C33.812 8.856 33.872 9.102 33.992 9.306C34.112 9.51 34.274 9.684 34.478 9.828C34.694 9.972 34.952 10.098 35.252 10.206C35.552 10.314 35.882 10.422 36.242 10.53C36.65 10.662 37.07 10.812 37.502 10.98C37.946 11.148 38.348 11.37 38.708 11.646C39.08 11.922 39.38 12.27 39.608 12.69C39.848 13.11 39.968 13.632 39.968 14.256C39.968 14.94 39.842 15.54 39.59 16.056C39.338 16.56 39.002 16.98 38.582 17.316C38.162 17.652 37.67 17.904 37.106 18.072C36.542 18.24 35.948 18.324 35.324 18.324C34.496 18.324 33.686 18.174 32.894 17.874C32.102 17.562 31.454 17.106 30.95 16.506L32.57 14.994C32.882 15.426 33.296 15.768 33.812 16.02C34.34 16.272 34.856 16.398 35.36 16.398C35.624 16.398 35.894 16.368 36.17 16.308C36.446 16.236 36.692 16.122 36.908 15.966C37.136 15.81 37.316 15.618 37.448 15.39C37.592 15.15 37.664 14.856 37.664 14.508C37.664 14.172 37.586 13.896 37.43 13.68C37.274 13.452 37.064 13.26 36.8 13.104C36.536 12.936 36.224 12.792 35.864 12.672C35.504 12.552 35.126 12.426 34.73 12.294C34.346 12.174 33.962 12.03 33.578 11.862C33.194 11.694 32.846 11.472 32.534 11.196C32.234 10.92 31.988 10.584 31.796 10.188C31.604 9.78 31.508 9.276 31.508 8.676C31.508 8.028 31.64 7.47 31.904 7.002C32.18 6.534 32.534 6.15 32.966 5.85C33.41 5.538 33.908 5.31 34.46 5.166C35.024 5.01 35.594 4.932 36.17 4.932C36.818 4.932 37.472 5.046 38.132 5.274C38.804 5.502 39.386 5.844 39.878 6.3L38.402 7.92ZM48.2159 12.816C48.2159 12.54 48.1739 12.276 48.0899 12.024C48.0179 11.772 47.8979 11.55 47.7299 11.358C47.5619 11.166 47.3459 11.016 47.0819 10.908C46.8299 10.788 46.5299 10.728 46.1819 10.728C45.5339 10.728 44.9819 10.926 44.5259 11.322C44.0819 11.706 43.8359 12.204 43.7879 12.816H48.2159ZM50.3759 13.788C50.3759 13.884 50.3759 13.98 50.3759 14.076C50.3759 14.172 50.3699 14.268 50.3579 14.364H43.7879C43.8119 14.676 43.8899 14.964 44.0219 15.228C44.1659 15.48 44.3519 15.702 44.5799 15.894C44.8079 16.074 45.0659 16.218 45.3539 16.326C45.6419 16.434 45.9419 16.488 46.2539 16.488C46.7939 16.488 47.2499 16.392 47.6219 16.2C47.9939 15.996 48.2999 15.72 48.5399 15.372L49.9799 16.524C49.1279 17.676 47.8919 18.252 46.2719 18.252C45.5999 18.252 44.9819 18.15 44.4179 17.946C43.8539 17.73 43.3619 17.43 42.9419 17.046C42.5339 16.662 42.2099 16.194 41.9699 15.642C41.7419 15.078 41.6279 14.442 41.6279 13.734C41.6279 13.038 41.7419 12.408 41.9699 11.844C42.2099 11.268 42.5339 10.782 42.9419 10.386C43.3499 9.978 43.8299 9.666 44.3819 9.45C44.9459 9.222 45.5519 9.108 46.1999 9.108C46.7999 9.108 47.3519 9.21 47.8559 9.414C48.3719 9.606 48.8159 9.9 49.1879 10.296C49.5599 10.68 49.8479 11.166 50.0519 11.754C50.2679 12.33 50.3759 13.008 50.3759 13.788ZM57.7264 16.902H57.6724C57.4564 17.286 57.1084 17.604 56.6284 17.856C56.1484 18.096 55.6024 18.216 54.9904 18.216C54.6424 18.216 54.2764 18.168 53.8924 18.072C53.5204 17.988 53.1724 17.844 52.8484 17.64C52.5364 17.424 52.2724 17.148 52.0564 16.812C51.8524 16.464 51.7504 16.038 51.7504 15.534C51.7504 14.886 51.9304 14.37 52.2904 13.986C52.6624 13.602 53.1364 13.308 53.7124 13.104C54.2884 12.9 54.9244 12.768 55.6204 12.708C56.3284 12.636 57.0184 12.6 57.6904 12.6V12.384C57.6904 11.844 57.4924 11.448 57.0964 11.196C56.7124 10.932 56.2504 10.8 55.7104 10.8C55.2544 10.8 54.8164 10.896 54.3964 11.088C53.9764 11.28 53.6284 11.514 53.3524 11.79L52.2364 10.476C52.7284 10.02 53.2924 9.678 53.9284 9.45C54.5764 9.222 55.2304 9.108 55.8904 9.108C56.6584 9.108 57.2884 9.216 57.7804 9.432C58.2844 9.648 58.6804 9.93 58.9684 10.278C59.2564 10.626 59.4544 11.016 59.5624 11.448C59.6824 11.88 59.7424 12.312 59.7424 12.744V18H57.7264V16.902ZM57.6904 14.058H57.2044C56.8564 14.058 56.4904 14.076 56.1064 14.112C55.7224 14.136 55.3684 14.202 55.0444 14.31C54.7204 14.406 54.4504 14.55 54.2344 14.742C54.0184 14.922 53.9104 15.174 53.9104 15.498C53.9104 15.702 53.9524 15.876 54.0364 16.02C54.1324 16.152 54.2524 16.26 54.3964 16.344C54.5404 16.428 54.7024 16.488 54.8824 16.524C55.0624 16.56 55.2424 16.578 55.4224 16.578C56.1664 16.578 56.7304 16.38 57.1144 15.984C57.4984 15.588 57.6904 15.048 57.6904 14.364V14.058ZM62.2589 9.36H64.3289V10.8H64.3649C64.6049 10.296 64.9409 9.888 65.3729 9.576C65.8049 9.264 66.3089 9.108 66.8849 9.108C66.9689 9.108 67.0589 9.114 67.1549 9.126C67.2509 9.126 67.3349 9.138 67.4069 9.162V11.142C67.2629 11.106 67.1369 11.082 67.0289 11.07C66.9329 11.058 66.8369 11.052 66.7409 11.052C66.2489 11.052 65.8529 11.142 65.5529 11.322C65.2529 11.502 65.0189 11.718 64.8509 11.97C64.6829 12.222 64.5689 12.48 64.5089 12.744C64.4489 13.008 64.4189 13.218 64.4189 13.374V18H62.2589V9.36ZM74.4031 11.754C74.2351 11.514 73.9831 11.316 73.6471 11.16C73.3111 10.992 72.9691 10.908 72.6211 10.908C72.2251 10.908 71.8771 10.992 71.5771 11.16C71.2771 11.316 71.0251 11.526 70.8211 11.79C70.6291 12.054 70.4851 12.354 70.3891 12.69C70.2931 13.014 70.2451 13.344 70.2451 13.68C70.2451 14.016 70.2931 14.352 70.3891 14.688C70.4971 15.012 70.6531 15.306 70.8571 15.57C71.0611 15.834 71.3131 16.05 71.6131 16.218C71.9251 16.374 72.2851 16.452 72.6931 16.452C73.0291 16.452 73.3651 16.386 73.7011 16.254C74.0371 16.122 74.3071 15.93 74.5111 15.678L75.8611 17.046C75.5011 17.43 75.0391 17.73 74.4751 17.946C73.9231 18.15 73.3231 18.252 72.6751 18.252C72.0391 18.252 71.4331 18.15 70.8571 17.946C70.2931 17.742 69.7951 17.442 69.3631 17.046C68.9431 16.65 68.6071 16.17 68.3551 15.606C68.1151 15.042 67.9951 14.4 67.9951 13.68C67.9951 12.984 68.1151 12.354 68.3551 11.79C68.6071 11.226 68.9431 10.746 69.3631 10.35C69.7831 9.954 70.2691 9.648 70.8211 9.432C71.3851 9.216 71.9851 9.108 72.6211 9.108C73.2571 9.108 73.8691 9.228 74.4571 9.468C75.0571 9.708 75.5311 10.038 75.8791 10.458L74.4031 11.754ZM82.0942 9.108C82.6582 9.108 83.1382 9.21 83.5342 9.414C83.9422 9.606 84.2722 9.864 84.5242 10.188C84.7882 10.512 84.9802 10.884 85.1002 11.304C85.2202 11.724 85.2802 12.156 85.2802 12.6V18H83.1202V13.248C83.1202 12.996 83.1022 12.738 83.0662 12.474C83.0302 12.198 82.9522 11.952 82.8322 11.736C82.7242 11.508 82.5622 11.322 82.3462 11.178C82.1422 11.034 81.8662 10.962 81.5182 10.962C81.1702 10.962 80.8702 11.028 80.6182 11.16C80.3662 11.292 80.1562 11.472 79.9882 11.7C79.8202 11.916 79.6942 12.162 79.6102 12.438C79.5262 12.714 79.4842 12.996 79.4842 13.284V18H77.3242V4.392H79.4842V10.566H79.5202C79.6042 10.386 79.7242 10.212 79.8802 10.044C80.0482 9.864 80.2402 9.708 80.4562 9.576C80.6722 9.432 80.9182 9.318 81.1942 9.234C81.4702 9.15 81.7702 9.108 82.0942 9.108Z" fill="white"/>
</svg>
